<svg width="200" height="62" viewBox="0 0 200 62" fill="none" xmlns="http://www.w3.org/2000/svg">
<path fill-rule="evenodd" clip-rule="evenodd" d="M81.1303 1.72802H77.7866V18.1061H86.5983V15.1583H81.1303V1.72802ZM91.8931 11.1326H96.7502V8.26912H91.8931V4.68555H97.6203V1.73784H88.5494V18.1103H97.6418V15.1626H91.8931V11.12V11.1326ZM126.822 12.723L128.181 6.82053L129.545 12.723H126.822ZM130.791 18.1131H134.123L129.826 1.73924H126.557L122.33 17.939L122.284 18.1131H125.586L126.138 15.7142H130.241L130.795 18.1131H130.791ZM121.781 1.73363H111.844V4.71784H115.12V18.1117H118.504V4.71784H121.781V1.73363ZM110.259 11.5411C110.08 11.0347 109.806 10.5708 109.453 10.1767C109.09 9.77603 108.665 9.44115 108.197 9.18572C107.686 8.90869 107.153 8.67901 106.604 8.49933L104.747 7.86627C104.5 7.77503 104.235 7.68379 103.963 7.58554C103.765 7.52002 103.577 7.42551 103.404 7.3048C103.263 7.20205 103.146 7.0672 103.061 6.91037C102.969 6.70196 102.927 6.47307 102.938 6.24363C102.938 6.06926 102.975 5.89705 103.047 5.73971C103.125 5.57508 103.238 5.43112 103.377 5.3186C103.571 5.16695 103.79 5.05416 104.023 4.98593C104.357 4.88669 104.703 4.8394 105.05 4.84557C105.277 4.84617 105.503 4.87827 105.722 4.94102C105.934 5.00035 106.137 5.09061 106.325 5.20912C106.503 5.33 106.658 5.48644 106.778 5.66952C106.839 5.75795 106.942 5.98535 106.942 6.52155V7.24163H110.165V6.52155C110.172 5.8561 110.058 5.19537 109.828 4.57466L109.812 4.53816C109.608 4.11251 109.353 3.71581 109.053 3.35768C108.746 2.9918 108.389 2.67536 107.994 2.41862C107.581 2.15417 107.135 1.95235 106.668 1.81925C106.158 1.67631 105.631 1.60597 105.103 1.61011C104.342 1.59868 103.585 1.7177 102.861 1.96243C102.232 2.17772 101.648 2.51749 101.141 2.96325C100.67 3.38374 100.293 3.90817 100.039 4.49886C99.7886 5.08683 99.6609 5.72367 99.6641 6.36715C99.6558 6.94495 99.7407 7.52009 99.9152 8.0684C100.077 8.55924 100.326 9.01361 100.65 9.4075C100.969 9.79399 101.348 10.121 101.772 10.3746C102.204 10.6289 102.662 10.8322 103.137 10.981L105.151 11.5776C105.405 11.6618 105.671 11.7629 105.943 11.8766C106.175 11.973 106.394 12.1009 106.595 12.2569C106.767 12.3915 106.912 12.5598 107.023 12.7525C107.121 12.9456 107.167 13.1629 107.157 13.3813C107.162 13.6034 107.12 13.8238 107.034 14.027C106.952 14.2058 106.832 14.3625 106.683 14.4846C106.496 14.6329 106.284 14.7424 106.057 14.8074C105.751 14.8952 105.435 14.9373 105.117 14.9323C104.778 14.9362 104.44 14.8942 104.112 14.8074C103.862 14.7423 103.626 14.63 103.415 14.4762C103.245 14.3505 103.107 14.1845 103.012 13.9919C102.978 13.9231 102.871 13.6368 102.871 12.8016V12.278H99.6722V12.8016C99.6765 13.4288 99.7549 14.053 99.9058 14.66V14.6811C100.044 15.1288 100.23 15.5588 100.46 15.9626C100.723 16.4153 101.062 16.8139 101.462 17.1389C101.918 17.4993 102.433 17.7708 102.981 17.9404C103.649 18.1458 104.342 18.2433 105.038 18.2296C105.774 18.2366 106.505 18.1137 107.201 17.866C107.839 17.6405 108.431 17.2925 108.947 16.8399C109.437 16.4047 109.834 15.8673 110.113 15.2622C110.397 14.6405 110.542 13.9594 110.537 13.2704C110.546 12.6819 110.455 12.0964 110.269 11.5411H110.259ZM151.777 12.285L153.985 5.18105L156.216 12.2878L151.777 12.285ZM154.762 1.71679H153.203L148.048 18.1075H149.956L151.194 14.1323H156.791L158.04 18.1075H159.936L154.78 1.78416L154.758 1.71679H154.762ZM166.497 8.41932L162.349 1.71679H160.81V18.1061H162.634V5.63724L165.951 11.0091L165.978 11.0526H167.012L170.323 5.64145V18.1061H172.147V1.71679H170.604L166.497 8.41932ZM193.14 10.8926C192.383 10.1907 191.173 9.46505 189.544 8.74777C188.496 8.29719 187.721 7.93224 187.245 7.66274C186.871 7.46314 186.543 7.1788 186.287 6.83036C186.073 6.48774 185.969 6.08343 185.989 5.67514C185.989 4.92418 186.213 4.38095 186.672 4.01319C187.176 3.61174 187.948 3.4068 188.966 3.4068C190.115 3.4068 191.001 3.65947 191.599 4.15637C191.872 4.37451 192.091 4.65789 192.237 4.98272C192.384 5.30755 192.454 5.66437 192.441 6.02325V7.36095H194.263V5.97974C194.263 4.61958 193.782 3.5205 192.832 2.7148C191.918 1.93997 190.639 1.54694 189.03 1.54694C187.533 1.54694 186.344 1.89786 185.513 2.58987C184.635 3.31837 184.189 4.37113 184.189 5.72006C184.189 6.56226 184.377 7.28375 184.75 7.84802C185.128 8.40963 185.623 8.87384 186.198 9.20537C187.007 9.66486 187.838 10.0795 188.689 10.4476C189.534 10.8122 190.354 11.2386 191.142 11.7236C191.585 11.9866 191.97 12.3432 192.273 12.7707C192.489 13.1244 192.598 13.5376 192.586 13.9568C192.586 14.726 192.332 15.3057 191.812 15.7324C191.255 16.1886 190.409 16.4188 189.299 16.4188C188.112 16.4188 187.181 16.1662 186.532 15.6665C186.248 15.4624 186.017 15.187 185.861 14.8655C185.705 14.5439 185.629 14.1866 185.639 13.8263V12.2359H183.859V13.867C183.859 15.2215 184.369 16.3164 185.376 17.1221C186.334 17.8899 187.64 18.2787 189.257 18.2787C190.84 18.2787 192.1 17.8885 192.998 17.1207C193.938 16.322 194.408 15.2412 194.408 13.9105C194.422 13.3414 194.316 12.7762 194.097 12.2547C193.879 11.7333 193.554 11.2683 193.144 10.8926H193.14ZM173.787 18.1061H183.268V16.2434H175.614V10.8224H181.849V8.98079H175.614V3.55981H183.268V1.71679H173.787V18.1061ZM148.06 9.49874V13.1974C148.078 14.1301 147.858 15.0508 147.421 15.8644C146.989 16.6387 146.35 17.2642 145.582 17.6639C144.749 18.0725 143.841 18.2843 142.92 18.2843C142 18.2843 141.091 18.0725 140.258 17.6639C139.49 17.2641 138.849 16.6407 138.412 15.8686C137.969 15.0653 137.743 14.1511 137.759 13.2241V6.60437C137.743 5.6773 137.969 4.76315 138.412 3.95985C138.849 3.18773 139.49 2.56389 140.258 2.16315C141.091 1.75549 142 1.54419 142.92 1.54419C143.84 1.54419 144.749 1.75549 145.582 2.16315C146.353 2.5624 146.995 3.1884 147.429 3.96407C147.862 4.76143 148.083 5.66522 148.069 6.58191V7.37358H146.246V6.56086C146.246 5.59654 145.957 4.84978 145.364 4.27708C144.77 3.70438 143.95 3.4054 142.938 3.4054C141.927 3.4054 141.088 3.70298 140.482 4.28831C139.877 4.87364 139.589 5.61899 139.589 6.58191V13.2409C139.589 14.2052 139.882 14.9548 140.482 15.5345C141.083 16.1142 141.914 16.416 142.938 16.416C143.963 16.416 144.767 16.1269 145.366 15.5542C145.965 14.9815 146.246 14.246 146.246 13.283V11.3446H142.393V9.49874H148.06ZM70.8992 23.8499H200V61.0893H70.8992V23.8499ZM89.1376 55.2275H93.3407C93.5864 55.2275 93.7261 55.118 93.7261 54.8977L93.6912 54.7573L88.5763 30.0022C88.5657 29.8862 88.5122 29.7792 88.4271 29.7039C88.3421 29.6286 88.2322 29.5911 88.1211 29.5993H83.3916C83.2805 29.5915 83.1709 29.6291 83.0859 29.7043C83.0009 29.7795 82.9473 29.8863 82.9364 30.0022L77.7866 54.7573C77.7168 55.0872 77.8215 55.2332 78.1371 55.2332H82.2354C82.2911 55.2408 82.3477 55.2362 82.4016 55.2197C82.4555 55.2031 82.5055 55.175 82.5483 55.1371C82.5912 55.0991 82.626 55.0522 82.6505 54.9994C82.675 54.9466 82.6887 54.889 82.6906 54.8303L83.2519 51.3141C83.2519 51.2046 83.3218 51.1316 83.4614 51.1316H87.9116C88.0459 51.1316 88.1211 51.2046 88.1211 51.3141L88.6824 54.8303C88.6843 54.889 88.698 54.9466 88.7225 54.9994C88.747 55.0522 88.7818 55.0991 88.8247 55.1371C88.8676 55.175 88.9175 55.2031 88.9714 55.2197C89.0253 55.2362 89.0819 55.2408 89.1376 55.2332V55.2275ZM184.949 55.191H189.048C189.107 55.1919 189.165 55.1798 189.219 55.1557C189.274 55.1315 189.323 55.0957 189.363 55.0507C189.432 54.971 189.47 54.8665 189.468 54.7587V45.2376L189.503 45.0172L194.443 30.1131C194.465 30.0472 194.473 29.9772 194.467 29.9077C194.461 29.8382 194.441 29.7708 194.408 29.7102C194.365 29.671 194.315 29.6411 194.261 29.6223C194.207 29.6035 194.149 29.5961 194.093 29.6007H189.783C189.673 29.5895 189.563 29.6204 189.473 29.6878C189.382 29.7551 189.319 29.8544 189.293 29.9671L187.121 38.719C187.086 38.792 187.051 38.8284 187.016 38.8284C186.981 38.8284 186.946 38.792 186.911 38.719L184.738 29.9671C184.713 29.8542 184.649 29.7548 184.559 29.6874C184.469 29.62 184.359 29.5892 184.248 29.6007H179.939C179.695 29.6007 179.554 29.7102 179.554 29.9306C179.545 29.9938 179.557 30.0581 179.589 30.1131L184.491 45.0088L184.526 45.2292V54.7503C184.542 54.8611 184.591 54.9637 184.667 55.0429C184.742 55.1221 184.84 55.1736 184.946 55.1896L184.949 55.191ZM172.058 29.8871L169.045 35.7095C168.975 35.819 168.91 35.819 168.834 35.7095L165.71 29.8857C165.657 29.7912 165.58 29.7139 165.487 29.6622C165.394 29.6104 165.29 29.5863 165.185 29.5923H161.157C161.053 29.5897 160.953 29.6289 160.876 29.7018C160.833 29.7442 160.799 29.7954 160.776 29.8521C160.753 29.9089 160.741 29.97 160.742 30.0316V54.7868C160.757 54.8979 160.806 55.0009 160.881 55.0802C160.957 55.1594 161.056 55.2107 161.162 55.2261H165.26C165.319 55.2268 165.378 55.2147 165.432 55.1905C165.487 55.1664 165.536 55.1307 165.576 55.0858C165.646 55.0057 165.683 54.9006 165.681 54.7924V38.3442C165.681 38.2347 165.716 38.2038 165.751 38.2038C165.78 38.2096 165.807 38.2226 165.83 38.2416C165.854 38.2607 165.872 38.2852 165.885 38.3133L168.618 43.3665C168.722 43.5504 168.827 43.6599 168.897 43.6599C168.967 43.6599 169.073 43.5504 169.178 43.3665L171.91 38.3133C171.923 38.2852 171.941 38.2607 171.965 38.2416C171.988 38.2226 172.015 38.2096 172.044 38.2038C172.081 38.2038 172.116 38.2403 172.116 38.3442V54.7868C172.13 54.8979 172.179 55.0009 172.255 55.0802C172.331 55.1594 172.43 55.2107 172.536 55.2261H176.634C176.693 55.2266 176.752 55.2144 176.806 55.1903C176.86 55.1661 176.909 55.1306 176.95 55.0858C177.02 55.0057 177.057 54.9006 177.055 54.7924V30.026C177.063 29.9663 177.058 29.9054 177.04 29.8481C177.022 29.7908 176.991 29.7388 176.95 29.6961C176.909 29.6534 176.859 29.6213 176.805 29.6023C176.75 29.5833 176.691 29.578 176.634 29.5867H172.571C172.466 29.5809 172.361 29.6051 172.269 29.6568C172.176 29.7085 172.098 29.7857 172.044 29.88L172.058 29.8871ZM158.143 33.5857V30.026C158.141 29.9076 158.104 29.7928 158.039 29.6962C157.946 29.6274 157.836 29.5892 157.723 29.5867H145.707C145.604 29.5841 145.503 29.6233 145.427 29.6962C145.384 29.7386 145.35 29.7897 145.327 29.8465C145.304 29.9032 145.292 29.9644 145.292 30.026V54.7868C145.307 54.8979 145.356 55.0009 145.432 55.0802C145.508 55.1594 145.606 55.2107 145.713 55.2261H157.728C157.787 55.2268 157.846 55.2147 157.9 55.1905C157.955 55.1664 158.004 55.1307 158.044 55.0858C158.114 55.0057 158.151 54.9006 158.149 54.7924V51.2397C158.146 51.1213 158.11 51.0065 158.044 50.9099C157.952 50.841 157.842 50.8029 157.728 50.8004H150.397C150.373 50.8018 150.35 50.798 150.328 50.7894C150.306 50.7807 150.286 50.7674 150.27 50.7501C150.253 50.7329 150.24 50.7123 150.232 50.6895C150.223 50.6667 150.219 50.6423 150.221 50.6179V44.7955C150.219 44.7709 150.223 44.7464 150.231 44.7234C150.24 44.7005 150.253 44.6796 150.269 44.6623C150.286 44.6449 150.306 44.6314 150.328 44.6227C150.35 44.6139 150.373 44.6102 150.397 44.6116H154.601C154.66 44.6121 154.718 44.5998 154.772 44.5757C154.826 44.5515 154.875 44.516 154.915 44.4712C154.985 44.3914 155.023 44.2863 155.021 44.1778V40.6266C155.029 40.5669 155.024 40.5061 155.006 40.4489C154.988 40.3918 154.957 40.3399 154.916 40.2973C154.875 40.2547 154.826 40.2226 154.771 40.2035C154.716 40.1844 154.658 40.1788 154.601 40.1872H150.397C150.373 40.1886 150.35 40.1849 150.328 40.1762C150.306 40.1676 150.286 40.1542 150.27 40.137C150.253 40.1198 150.24 40.0991 150.232 40.0763C150.223 40.0535 150.219 40.0291 150.221 40.0047V34.2188C150.219 34.1944 150.223 34.17 150.232 34.1472C150.24 34.1244 150.253 34.1037 150.27 34.0865C150.286 34.0693 150.306 34.056 150.328 34.0473C150.35 34.0387 150.373 34.0349 150.397 34.0363H157.718C157.777 34.0372 157.835 34.0251 157.89 34.0009C157.944 33.9768 157.993 33.941 158.033 33.8959C158.103 33.8162 158.14 33.7117 158.138 33.604L158.143 33.5857ZM128.921 55.2275H135.261C137.399 55.2275 139.08 54.5678 140.376 53.2863C141.672 52.0047 142.303 50.2838 142.303 48.1236V36.6977C142.303 34.5374 141.673 32.8165 140.376 31.535C139.079 30.2534 137.399 29.5937 135.261 29.5937H128.921C128.817 29.5915 128.718 29.6307 128.641 29.7032C128.598 29.7454 128.564 29.7966 128.541 29.8534C128.518 29.9101 128.506 29.9713 128.507 30.033V54.7868C128.522 54.8976 128.572 55.0002 128.647 55.0794C128.723 55.1586 128.821 55.2101 128.927 55.2261L128.921 55.2275ZM133.441 50.6137C133.439 50.638 133.443 50.6624 133.451 50.6852C133.459 50.708 133.472 50.7286 133.489 50.7459C133.505 50.7631 133.525 50.7765 133.547 50.7852C133.569 50.7938 133.592 50.7976 133.615 50.7961L135.192 50.7597C135.493 50.7541 135.79 50.6751 136.058 50.5289C136.325 50.3827 136.556 50.1734 136.733 49.9174C137.119 49.3686 137.329 48.6724 137.364 47.7937V37.0275C137.364 36.1123 137.153 35.3796 136.768 34.8308C136.383 34.282 135.828 34.0251 135.157 34.0251H133.615C133.592 34.0237 133.569 34.0274 133.547 34.0361C133.525 34.0447 133.505 34.0581 133.489 34.0754C133.472 34.0926 133.459 34.1133 133.451 34.1361C133.443 34.1589 133.439 34.1832 133.441 34.2076V50.6137ZM121.699 55.2275H125.903C126.148 55.2275 126.289 55.118 126.289 54.8977L126.254 54.7573L121.139 30.0022C121.128 29.8862 121.074 29.7794 120.988 29.7042C120.903 29.6291 120.793 29.5914 120.682 29.5993H115.954C115.843 29.5911 115.733 29.6286 115.648 29.7038C115.562 29.779 115.508 29.8861 115.498 30.0022L110.348 54.7573C110.278 55.0872 110.383 55.2332 110.698 55.2332H114.798C114.854 55.2408 114.91 55.2362 114.964 55.2197C115.018 55.2031 115.068 55.175 115.111 55.1371C115.154 55.0991 115.189 55.0522 115.213 54.9994C115.238 54.9466 115.251 54.889 115.253 54.8303L115.813 51.3141C115.813 51.2046 115.883 51.1316 116.024 51.1316H120.473C120.607 51.1316 120.682 51.2046 120.682 51.3141L121.244 54.8303C121.245 54.889 121.259 54.9466 121.284 54.9994C121.308 55.0522 121.343 55.0991 121.386 55.1371C121.429 55.175 121.479 55.2031 121.533 55.2197C121.586 55.2362 121.643 55.2408 121.699 55.2332V55.2275ZM116.514 46.9459C116.514 47.0554 116.549 47.1284 116.648 47.1284H119.801C119.906 47.1284 119.977 47.0554 119.936 46.9459L118.289 36.9531C118.254 36.8802 118.219 36.8423 118.185 36.8423C118.15 36.8423 118.115 36.8802 118.08 36.9531L116.503 46.9501L116.514 46.9459ZM101.9 55.5083C104.001 55.5083 105.684 54.8485 106.98 53.5305C108.276 52.2489 108.907 50.4902 108.907 48.2934V47.9271C108.915 47.8674 108.91 47.8066 108.891 47.7494C108.873 47.6923 108.842 47.6404 108.802 47.5978C108.761 47.5552 108.711 47.523 108.656 47.5039C108.602 47.4848 108.544 47.4793 108.487 47.4877L104.387 47.3052C104.284 47.303 104.184 47.3422 104.108 47.4147C104.063 47.4563 104.028 47.5072 104.004 47.564C103.979 47.6208 103.967 47.6823 103.967 47.7446V48.7271C103.967 49.429 103.792 50.0087 103.407 50.4115C103.217 50.6298 102.984 50.802 102.723 50.916C102.463 51.03 102.182 51.083 101.9 51.0713C101.623 51.08 101.347 51.0255 101.092 50.9115C100.837 50.7976 100.608 50.627 100.423 50.4115C100.037 50.0087 99.8629 49.429 99.8629 48.7271V36.0941C99.8629 35.3923 100.037 34.8125 100.423 34.3732C100.608 34.1575 100.837 33.9868 101.092 33.8728C101.347 33.7589 101.623 33.7045 101.9 33.7135C102.182 33.7018 102.463 33.7548 102.723 33.8687C102.984 33.9827 103.217 34.1549 103.407 34.3732C103.792 34.8125 103.967 35.3979 103.967 36.0941V37.0458C103.967 37.3027 104.108 37.4486 104.387 37.4486L108.487 37.2662C108.545 37.2666 108.604 37.2543 108.658 37.2302C108.712 37.206 108.76 37.1705 108.801 37.1258C108.872 37.0466 108.91 36.9411 108.907 36.8324V36.4296C108.907 34.2693 108.276 32.5119 107.015 31.236C105.719 29.9544 104.036 29.2947 101.9 29.2947C99.7984 29.2947 98.1158 29.9544 96.8549 31.236C95.5591 32.5175 94.9279 34.2749 94.9279 36.4296V48.2948C94.9279 50.4916 95.5591 52.2504 96.8549 53.5319C98.1154 54.8504 99.7971 55.5097 101.9 55.5097V55.5083ZM83.9583 46.9459C83.9583 47.0554 83.9932 47.1284 84.0926 47.1284H87.2455C87.3503 47.1284 87.4201 47.0554 87.3798 46.9459L85.7335 36.9489C85.6986 36.8759 85.6637 36.838 85.6288 36.838C85.5939 36.838 85.5589 36.8759 85.524 36.9489L83.9583 46.9459Z" fill="white"/>
<ellipse cx="30.5" cy="33.5" rx="14.5" ry="15.5" fill="#2A7DE1"/>
<path fill-rule="evenodd" clip-rule="evenodd" d="M30.461 0L40.3733 19.2185L60.922 23.1339L46.4991 38.9266L49.2865 60.5659L30.461 51.1073L11.6345 60.5659L14.4229 38.9266L0 23.1339L20.5487 19.2185L30.461 0ZM29.7776 23.1339H25.5278V42.4237H36.7304V38.6871H29.7756V23.1339H29.7776ZM30.461 19.4995C27.816 19.4993 25.2304 20.3189 23.0311 21.8548C20.8318 23.3907 19.1176 25.5738 18.1053 28.128C17.093 30.6823 16.828 33.493 17.3439 36.2047C17.8598 38.9163 19.1334 41.4072 21.0035 43.3623C22.8737 45.3173 25.2566 46.6488 27.8507 47.1882C30.4448 47.7277 33.1337 47.4509 35.5773 46.3929C38.021 45.3349 40.1096 43.5433 41.5791 41.2445C43.0485 38.9456 43.8329 36.243 43.8329 33.4782C43.8323 29.7714 42.4233 26.2165 39.9157 23.5955C37.4081 20.9745 34.0072 19.5019 30.461 19.5016V19.4995Z" fill="white"/>
</svg>
